<svg id="_0068_piggy_bank" xmlns="http://www.w3.org/2000/svg" xmlns:xlink="http://www.w3.org/1999/xlink" viewBox="0 0 500 500" data-imageid="savings-76" imageName="Savings" class="illustrations_image" style="width: 144px;"><defs><style>.cls-1_savings-76{fill:url(#linear-gradient);}.cls-1_savings-76,.cls-2_savings-76,.cls-3_savings-76,.cls-4_savings-76,.cls-5_savings-76,.cls-6_savings-76,.cls-7_savings-76,.cls-8_savings-76,.cls-9_savings-76,.cls-10_savings-76,.cls-11_savings-76,.cls-12_savings-76,.cls-13_savings-76,.cls-14_savings-76,.cls-15_savings-76,.cls-16_savings-76,.cls-17_savings-76,.cls-18_savings-76,.cls-19_savings-76,.cls-20_savings-76,.cls-21_savings-76,.cls-22_savings-76,.cls-23_savings-76,.cls-24_savings-76,.cls-25_savings-76,.cls-26_savings-76,.cls-27_savings-76,.cls-28_savings-76,.cls-29_savings-76,.cls-30_savings-76,.cls-31_savings-76,.cls-32_savings-76,.cls-33_savings-76,.cls-34_savings-76,.cls-35_savings-76,.cls-36_savings-76,.cls-37_savings-76,.cls-38_savings-76,.cls-39_savings-76,.cls-40_savings-76,.cls-41_savings-76,.cls-42_savings-76,.cls-43_savings-76,.cls-44_savings-76,.cls-45_savings-76,.cls-46_savings-76,.cls-47_savings-76,.cls-48_savings-76,.cls-49_savings-76,.cls-50_savings-76{stroke-width:0px;}.cls-2_savings-76{isolation:isolate;opacity:.18;}.cls-2_savings-76,.cls-50_savings-76{fill:#68e1fd;}.cls-3_savings-76{fill:url(#linear-gradient-38-savings-76);}.cls-4_savings-76{fill:url(#linear-gradient-33-savings-76);}.cls-5_savings-76{fill:url(#linear-gradient-29-savings-76);}.cls-6_savings-76{fill:url(#linear-gradient-32-savings-76);}.cls-7_savings-76{fill:url(#linear-gradient-30-savings-76);}.cls-8_savings-76{fill:url(#linear-gradient-31-savings-76);}.cls-9_savings-76{fill:url(#linear-gradient-36-savings-76);}.cls-10_savings-76{fill:url(#linear-gradient-39-savings-76);}.cls-11_savings-76{fill:url(#linear-gradient-34-savings-76);}.cls-12_savings-76{fill:url(#linear-gradient-37-savings-76);}.cls-13_savings-76{fill:url(#linear-gradient-35-savings-76);}.cls-14_savings-76{fill:url(#linear-gradient-28-savings-76);}.cls-15_savings-76{fill:url(#linear-gradient-25-savings-76);}.cls-16_savings-76{fill:url(#linear-gradient-11-savings-76);}.cls-17_savings-76{fill:url(#linear-gradient-12-savings-76);}.cls-18_savings-76{fill:url(#linear-gradient-13-savings-76);}.cls-19_savings-76{fill:url(#linear-gradient-10-savings-76);}.cls-20_savings-76{fill:url(#linear-gradient-17-savings-76);}.cls-21_savings-76{fill:url(#linear-gradient-16-savings-76);}.cls-22_savings-76{fill:url(#linear-gradient-19-savings-76);}.cls-23_savings-76{fill:url(#linear-gradient-15-savings-76);}.cls-24_savings-76{fill:url(#linear-gradient-23-savings-76);}.cls-25_savings-76{fill:url(#linear-gradient-21-savings-76);}.cls-26_savings-76{fill:url(#linear-gradient-18-savings-76);}.cls-27_savings-76{fill:url(#linear-gradient-14-savings-76);}.cls-28_savings-76{fill:url(#linear-gradient-22-savings-76);}.cls-29_savings-76{fill:url(#linear-gradient-20-savings-76);}.cls-30_savings-76{fill:url(#linear-gradient-27-savings-76);}.cls-31_savings-76{fill:url(#linear-gradient-24-savings-76);}.cls-32_savings-76{fill:url(#linear-gradient-26-savings-76);}.cls-33_savings-76{fill:url(#linear-gradient-45-savings-76);}.cls-34_savings-76{fill:url(#linear-gradient-46-savings-76);}.cls-35_savings-76{fill:url(#linear-gradient-44-savings-76);}.cls-36_savings-76{fill:url(#linear-gradient-42-savings-76);}.cls-37_savings-76{fill:url(#linear-gradient-43-savings-76);}.cls-38_savings-76{fill:url(#linear-gradient-40-savings-76);}.cls-39_savings-76{fill:url(#linear-gradient-41-savings-76);}.cls-40_savings-76{fill:url(#linear-gradient-4-savings-76);}.cls-41_savings-76{fill:url(#linear-gradient-2-savings-76);}.cls-42_savings-76{fill:url(#linear-gradient-3-savings-76);}.cls-43_savings-76{fill:url(#linear-gradient-8-savings-76);}.cls-44_savings-76{fill:url(#linear-gradient-9-savings-76);}.cls-45_savings-76{fill:url(#linear-gradient-7-savings-76);}.cls-46_savings-76{fill:url(#linear-gradient-5-savings-76);}.cls-47_savings-76{fill:url(#linear-gradient-6-savings-76);}.cls-48_savings-76{fill:#231f20;}.cls-49_savings-76{fill:#ffb4a3;}</style><linearGradient id="linear-gradient-savings-76" x1="425.08" y1="1799.08" x2="401.33" y2="1830.76" gradientTransform="translate(-140.39 1955.13) scale(1 -1)" gradientUnits="userSpaceOnUse"><stop offset="0" stop-color="#000"/><stop offset="1" stop-color="#000" stop-opacity="0"/></linearGradient><linearGradient id="linear-gradient-2-savings-76" x1="422.31" y1="1556.15" x2="577.24" y2="1556.15" xlink:href="#linear-gradient-savings-76"/><linearGradient id="linear-gradient-3-savings-76" x1="492.01" y1="1544.7" x2="486.89" y2="1562.41" gradientTransform="translate(-140.39 1955.13) scale(1 -1)" gradientUnits="userSpaceOnUse"><stop offset="0" stop-color="#000"/><stop offset=".84" stop-color="#000" stop-opacity="0"/></linearGradient><linearGradient id="linear-gradient-4-savings-76" x1="435.82" y1="1590.63" x2="590.76" y2="1590.63" xlink:href="#linear-gradient-savings-76"/><linearGradient id="linear-gradient-5-savings-76" x1="405.82" y1="1581.38" x2="422.03" y2="1559.36" gradientTransform="translate(-31 1955.13) scale(1 -1)" gradientUnits="userSpaceOnUse"><stop offset=".32" stop-color="#fff" stop-opacity="0"/><stop offset="1" stop-color="#fff"/></linearGradient><linearGradient id="linear-gradient-6-savings-76" x1="530.49" y1="1652.31" x2="512.77" y2="1628.46" xlink:href="#linear-gradient-savings-76"/><linearGradient id="linear-gradient-7-savings-76" x1="537.41" y1="1650.3" x2="494.54" y2="1601.79" xlink:href="#linear-gradient-3-savings-76"/><linearGradient id="linear-gradient-8-savings-76" x1="524.71" y1="1610.41" x2="545.5" y2="1604.35" xlink:href="#linear-gradient-savings-76"/><linearGradient id="linear-gradient-9-savings-76" x1="430.57" y1="1653.84" x2="585.49" y2="1653.84" xlink:href="#linear-gradient-savings-76"/><linearGradient id="linear-gradient-10-savings-76" x1="424.35" y1="1676.73" x2="445.45" y2="1651.65" xlink:href="#linear-gradient-5-savings-76"/><linearGradient id="linear-gradient-11-savings-76" x1="396.58" y1="-349.55" x2="383.64" y2="-313.67" gradientTransform="translate(-31 600.5)" xlink:href="#linear-gradient-savings-76"/><linearGradient id="linear-gradient-12-savings-76" x1="513.57" y1="1704.32" x2="497.99" y2="1675.31" xlink:href="#linear-gradient-savings-76"/><linearGradient id="linear-gradient-13-savings-76" x1="426.51" y1="1686.4" x2="581.43" y2="1686.4" xlink:href="#linear-gradient-savings-76"/><linearGradient id="linear-gradient-14-savings-76" x1="390.58" y1="1681.18" x2="404.63" y2="1656.07" xlink:href="#linear-gradient-5-savings-76"/><linearGradient id="linear-gradient-15-savings-76" x1="487.39" y1="1713.69" x2="492.98" y2="1683.88" xlink:href="#linear-gradient-3-savings-76"/><linearGradient id="linear-gradient-16-savings-76" x1="488.09" y1="1701.37" x2="550.98" y2="1709.95" xlink:href="#linear-gradient-savings-76"/><linearGradient id="linear-gradient-17-savings-76" x1="423.52" y1="1721.01" x2="578.46" y2="1721.01" xlink:href="#linear-gradient-savings-76"/><linearGradient id="linear-gradient-18-savings-76" x1="477.53" y1="1772.26" x2="463.09" y2="1718.69" xlink:href="#linear-gradient-savings-76"/><linearGradient id="linear-gradient-19-savings-76" x1="463.83" y1="1753.12" x2="475.48" y2="1711.19" gradientTransform="translate(-140.39 1955.13) scale(1 -1)" xlink:href="#linear-gradient-5-savings-76"/><linearGradient id="linear-gradient-20-savings-76" x1="465.67" y1="1736.04" x2="539.65" y2="1736.04" gradientTransform="translate(-140.39 1955.13) scale(1 -1)" gradientUnits="userSpaceOnUse"><stop offset="0" stop-color="#231f20" stop-opacity="0"/><stop offset="1" stop-color="#231f20"/></linearGradient><linearGradient id="linear-gradient-21-savings-76" x1="334.05" y1="1812.59" x2="437.34" y2="1786.29" gradientTransform="translate(-1621.63 315.8) rotate(73.74) scale(1 -1)" xlink:href="#linear-gradient-savings-76"/><linearGradient id="linear-gradient-22-savings-76" x1="407.73" y1="1845.27" x2="166.44" y2="1737.56" gradientTransform="translate(-1632.57 325.91) rotate(73.74) scale(1 -1)" gradientUnits="userSpaceOnUse"><stop offset=".32" stop-color="#fff" stop-opacity="0"/><stop offset=".54" stop-color="#fff"/></linearGradient><linearGradient id="linear-gradient-23-savings-76" x1="331.79" y1="1811.15" x2="439.61" y2="1861.94" xlink:href="#linear-gradient-22-savings-76"/><linearGradient id="linear-gradient-24-savings-76" x1="335.37" y1="1817.14" x2="305.64" y2="1839.56" xlink:href="#linear-gradient-savings-76"/><linearGradient id="linear-gradient-25-savings-76" x1="329.49" y1="1834.2" x2="369.17" y2="1773.91" gradientTransform="translate(-140.39 1955.13) scale(1 -1)" xlink:href="#linear-gradient-5-savings-76"/><linearGradient id="linear-gradient-26-savings-76" x1="520.53" y1="1797.77" x2="417.05" y2="1820.47" xlink:href="#linear-gradient-savings-76"/><linearGradient id="linear-gradient-27-savings-76" x1="474.54" y1="1777.75" x2="440.75" y2="1825.8" xlink:href="#linear-gradient-savings-76"/><linearGradient id="linear-gradient-28-savings-76" x1="204.71" y1="1481.76" x2="204.66" y2="1576.12" gradientTransform="translate(-31 1955.13) scale(1 -1)" xlink:href="#linear-gradient-20-savings-76"/><linearGradient id="linear-gradient-29-savings-76" x1="448.29" y1="1407.82" x2="411.31" y2="1585.54" xlink:href="#linear-gradient-savings-76"/><linearGradient id="linear-gradient-30-savings-76" x1="198.25" y1="1610.73" x2="174.5" y2="1724.86" gradientTransform="translate(-31 2125.13) scale(1 -1)" xlink:href="#linear-gradient-savings-76"/><linearGradient id="linear-gradient-31-savings-76" x1="375.79" y1="1849.1" x2="374.05" y2="1899.99" gradientTransform="translate(-31 2125.13) scale(1 -1)" xlink:href="#linear-gradient-savings-76"/><linearGradient id="linear-gradient-32-savings-76" x1="471.44" y1="1707.51" x2="507.04" y2="1707.51" xlink:href="#linear-gradient-savings-76"/><linearGradient id="linear-gradient-33-savings-76" x1="183.25" y1="1603.14" x2="205.16" y2="1813.95" gradientTransform="translate(-31 2125.13) scale(1 -1)" gradientUnits="userSpaceOnUse"><stop offset="0" stop-color="#000"/><stop offset=".07" stop-color="#000" stop-opacity=".84"/><stop offset="1" stop-color="#000" stop-opacity="0"/></linearGradient><linearGradient id="linear-gradient-34-savings-76" x1="443" y1="1568.64" x2="467.96" y2="1819.38" gradientTransform="translate(-140.39 1955.13) scale(1 -1)" gradientUnits="userSpaceOnUse"><stop offset="0" stop-color="#fff" stop-opacity="0"/><stop offset=".54" stop-color="#fff"/></linearGradient><linearGradient id="linear-gradient-35-savings-76" x1="353.46" y1="1659" x2="375.17" y2="1611.8" gradientTransform="translate(-31 1955.13) scale(1 -1)" xlink:href="#linear-gradient-savings-76"/><linearGradient id="linear-gradient-36-savings-76" x1="391.74" y1="1676.6" x2="413.44" y2="1629.41" gradientTransform="translate(-31 1955.13) scale(1 -1)" xlink:href="#linear-gradient-savings-76"/><linearGradient id="linear-gradient-37-savings-76" x1="510.56" y1="1591.95" x2="507.74" y2="1661.17" gradientTransform="translate(-140.39 1955.13) scale(1 -1)" gradientUnits="userSpaceOnUse"><stop offset="0" stop-color="#fff" stop-opacity="0"/><stop offset=".67" stop-color="#fff"/></linearGradient><linearGradient id="linear-gradient-38-savings-76" x1="486.83" y1="1680.51" x2="543.46" y2="1590.84" gradientTransform="translate(-425.53 1835.84) rotate(10.41) scale(1 -1)" xlink:href="#linear-gradient-savings-76"/><linearGradient id="linear-gradient-39-savings-76" x1="517.62" y1="1640.16" x2="536.49" y2="1552.99" xlink:href="#linear-gradient-savings-76"/><linearGradient id="linear-gradient-40-savings-76" x1="525.26" y1="1641.81" x2="544.13" y2="1554.64" xlink:href="#linear-gradient-savings-76"/><linearGradient id="linear-gradient-41-savings-76" x1="491.85" y1="1415.07" x2="454.86" y2="1592.79" xlink:href="#linear-gradient-savings-76"/><linearGradient id="linear-gradient-42-savings-76" x1="311.83" y1="1813.67" x2="266.16" y2="1873.26" gradientTransform="translate(-31 2125.13) scale(1 -1)" xlink:href="#linear-gradient-savings-76"/><linearGradient id="linear-gradient-43-savings-76" x1="369.93" y1="1689.61" x2="405.53" y2="1689.61" xlink:href="#linear-gradient-savings-76"/><linearGradient id="linear-gradient-44-savings-76" x1="299.75" y1="1763.94" x2="308.74" y2="1715.48" xlink:href="#linear-gradient-savings-76"/><linearGradient id="linear-gradient-45-savings-76" x1="260.14" y1="1388.82" x2="223.15" y2="1566.54" xlink:href="#linear-gradient-savings-76"/><linearGradient id="linear-gradient-46-savings-76" x1="383.65" y1="1390.44" x2="346.66" y2="1568.16" xlink:href="#linear-gradient-savings-76"/></defs><path id="background_savings-76" class="cls-2_savings-76 targetColor" d="M96.27,140.67c-7.72,29.12-38.55,57.23-44.26,86.8-5.33,27.4,12.7,54.33,34.59,71.64,21.9,17.32,48.13,28.52,69.75,46.21,21.32,17.48,37.25,40.59,57.02,59.8,19.77,19.22,45.88,35.09,73.29,32.15,47.24-5.08,70.22-58.58,104.36-91.63,28.75-27.8,72.43-48.6,76.25-88.43,2.32-24.11-11.79-46.42-25.59-66.31-26.88-38.8-78.78-40.76-121.88-61.31-43.8-20.87-193.02-103.99-223.54,11.08Z" style="fill: rgb(104, 225, 253);"/><g id="hand_savings-76"><path class="cls-50_savings-76 targetColor" d="M282.55,106.69l-20.9,19.45c-2.89,2.7-6.79,4.04-10.73,3.69l-36.23-3.21-2.26,22.33s40.6,6.34,46.4,4.63c5.79-1.71,41.65-28.89,41.65-28.89l5.29-29.81c-7.61-.03-18.54,6.3-23.22,11.8Z" style="fill: rgb(104, 225, 253);"/><path class="cls-50_savings-76 targetColor" d="M282.55,106.69l-20.9,19.45c-2.89,2.7-6.79,4.04-10.73,3.69l-36.23-3.21-2.26,22.33s40.6,6.34,46.4,4.63c5.79-1.71,41.65-28.89,41.65-28.89l5.29-29.81c-7.61-.03-18.54,6.3-23.22,11.8Z" style="fill: rgb(104, 225, 253);"/><path class="cls-1_savings-76" d="M282.55,106.69l-20.9,19.45c-2.89,2.7-6.79,4.04-10.73,3.69l-36.23-3.21-2.26,22.33s40.6,6.34,46.4,4.63c5.79-1.71,41.65-28.89,41.65-28.89l5.29-29.81c-7.61-.03-18.54,6.3-23.22,11.8Z"/></g><g id="coins_savings-76"><path class="cls-50_savings-76 targetColor" d="M421.06,399.04c0,13.01-34.52,23.57-77.1,23.57s-77.1-10.56-77.1-23.57c0-1.25-.61-12.95,0-14.15,5.76-11.28,38.62-9.43,77.1-9.43s69.91-1.31,77.1,9.43c1.03,1.54,0,12.52,0,14.15Z" style="fill: rgb(104, 225, 253);"/><path class="cls-41_savings-76" d="M421.06,399.04c0,13.01-34.52,23.57-77.1,23.57s-77.1-10.56-77.1-23.57c0-1.25-.61-12.95,0-14.15,5.76-11.28,38.62-9.43,77.1-9.43s69.91-1.31,77.1,9.43c1.03,1.54,0,12.52,0,14.15Z"/><ellipse class="cls-50_savings-76 targetColor" cx="343.95" cy="384.89" rx="77.1" ry="23.57" style="fill: rgb(104, 225, 253);"/><path class="cls-50_savings-76 targetColor" d="M404.61,383.87c-4.63,8.6-30.04,15.16-60.66,15.16s-56-6.56-60.66-15.16c4.63-8.6,30.04-15.18,60.66-15.18s56.01,6.58,60.66,15.18Z" style="fill: rgb(104, 225, 253);"/><path class="cls-42_savings-76" d="M404.61,383.87c-4.63,8.6-30.04,15.16-60.66,15.16s-56-6.56-60.66-15.16c4.63-8.6,30.04-15.18,60.66-15.18s56.01,6.58,60.66,15.18Z"/><path class="cls-50_savings-76 targetColor" d="M434.74,364.55c0,13.02-34.52,23.57-77.1,23.57s-77.1-10.55-77.1-23.57c0-1.25-.61-12.95,0-14.15,5.76-11.28,38.62-9.42,77.1-9.42s69.91-1.31,77.1,9.42c1.03,1.54,0,12.56,0,14.15Z" style="fill: rgb(104, 225, 253);"/><path class="cls-40_savings-76" d="M434.74,364.55c0,13.02-34.52,23.57-77.1,23.57s-77.1-10.55-77.1-23.57c0-1.25-.61-12.95,0-14.15,5.76-11.28,38.62-9.42,77.1-9.42s69.91-1.31,77.1,9.42c1.03,1.54,0,12.56,0,14.15Z"/><ellipse class="cls-50_savings-76 targetColor" cx="357.64" cy="350.4" rx="77.1" ry="23.57" style="fill: rgb(104, 225, 253);"/><ellipse class="cls-46_savings-76" cx="357.64" cy="350.4" rx="77.1" ry="23.57"/><path class="cls-47_savings-76" d="M419.05,346.54c-.01,1-.28,1.98-.77,2.84-4.63,8.6-30.04,15.17-60.67,15.17s-56-6.57-60.65-15.17c-.49-.87-.76-1.84-.77-2.84,0-9.96,27.5-18.03,61.41-18.03s61.46,8.07,61.46,18.03Z"/><path class="cls-45_savings-76" d="M418.3,349.38c-4.63,8.6-30.04,15.17-60.67,15.17s-56-6.57-60.65-15.17c4.63-8.6,30.04-15.17,60.65-15.17s56.02,6.57,60.67,15.17Z"/><path class="cls-50_savings-76 targetColor" d="M412.04,333.91c0,13.02-34.52,23.57-77.1,23.57s-77.1-10.55-77.1-23.57c0-1.24-.61-12.95,0-14.14,5.76-11.28,38.62-9.43,77.1-9.43s69.91-1.31,77.1,9.43c1.03,1.53,0,12.51,0,14.14Z" style="fill: rgb(104, 225, 253);"/><path class="cls-43_savings-76" d="M412.04,333.91c0,13.02-34.52,23.57-77.1,23.57s-77.1-10.55-77.1-23.57c0-1.24-.61-12.95,0-14.14,5.76-11.28,38.62-9.43,77.1-9.43s69.91-1.31,77.1,9.43c1.03,1.53,0,12.51,0,14.14Z"/><ellipse class="cls-50_savings-76 targetColor" cx="334.95" cy="319.76" rx="77.1" ry="23.57" style="fill: rgb(104, 225, 253);"/><path class="cls-50_savings-76 targetColor" d="M425.9,301.34c0,13.01-34.52,23.57-77.1,23.57s-77.1-10.56-77.1-23.57c0-1.25-.61-12.95,0-14.15,5.76-11.28,38.62-9.42,77.1-9.42s69.91-1.31,77.1,9.42c1,1.54,0,12.52,0,14.15Z" style="fill: rgb(104, 225, 253);"/><path class="cls-44_savings-76" d="M425.9,301.34c0,13.01-34.52,23.57-77.1,23.57s-77.1-10.56-77.1-23.57c0-1.25-.61-12.95,0-14.15,5.76-11.28,38.62-9.42,77.1-9.42s69.91-1.31,77.1,9.42c1,1.54,0,12.52,0,14.15Z"/><ellipse class="cls-50_savings-76 targetColor" cx="348.76" cy="287.19" rx="77.1" ry="23.57" style="fill: rgb(104, 225, 253);"/><ellipse class="cls-19_savings-76" cx="375.86" cy="257.6" rx="77.1" ry="23.57"/><path class="cls-16_savings-76" d="M414.86,284.56c-.01,1-.28,1.98-.77,2.85-4.63,8.6-30.04,15.17-60.66,15.17s-55.96-6.57-60.6-15.17c-.49-.87-.76-1.85-.77-2.85,0-9.95,27.5-18.02,61.42-18.02s61.39,8.06,61.39,18.02Z"/><path class="cls-17_savings-76" d="M414.13,287.48c-4.63,8.6-30.04,15.17-60.66,15.17s-56.01-6.57-60.65-15.17c4.63-8.6,30.04-15.17,60.66-15.17s55.96,6.57,60.65,15.17Z"/><path class="cls-50_savings-76 targetColor" d="M425.9,268.78c0,13.01-34.52,23.57-77.1,23.57s-77.1-10.56-77.1-23.57c0-1.25-.61-12.95,0-14.15,5.76-11.28,38.62-9.42,77.1-9.42s69.91-1.32,77.1,9.42c1,1.54,0,12.56,0,14.15Z" style="fill: rgb(104, 225, 253);"/><path class="cls-18_savings-76" d="M425.9,268.78c0,13.01-34.52,23.57-77.1,23.57s-77.1-10.56-77.1-23.57c0-1.25-.61-12.95,0-14.15,5.76-11.28,38.62-9.42,77.1-9.42s69.91-1.32,77.1,9.42c1,1.54,0,12.56,0,14.15Z"/><ellipse class="cls-50_savings-76 targetColor" cx="348.76" cy="254.63" rx="77.1" ry="23.57" style="fill: rgb(104, 225, 253);"/><ellipse class="cls-27_savings-76" cx="348.76" cy="254.63" rx="77.1" ry="23.57"/><path class="cls-23_savings-76" d="M410.15,250.76c-.01,1-.28,1.98-.77,2.85-4.63,8.6-30.04,15.16-60.66,15.16s-55.96-6.56-60.6-15.16c-.49-.87-.76-1.85-.77-2.85,0-9.96,27.5-18.02,61.42-18.02s61.39,8.06,61.39,18.02Z"/><path class="cls-21_savings-76" d="M409.42,253.61c-4.63,8.6-30.04,15.16-60.66,15.16s-56.01-6.56-60.65-15.16c4.63-8.6,30.04-15.18,60.66-15.18s55.96,6.58,60.65,15.18Z"/><path class="cls-50_savings-76 targetColor" d="M405.25,234.18c0,13.01-34.52,23.57-77.1,23.57s-77.1-10.56-77.1-23.57c0-1.25-.61-12.95,0-14.15,5.76-11.28,38.62-9.43,77.1-9.43s69.91-1.31,77.1,9.43c1.03,1.54,0,12.52,0,14.15Z" style="fill: rgb(104, 225, 253);"/><path class="cls-20_savings-76" d="M405.25,234.18c0,13.01-34.52,23.57-77.1,23.57s-77.1-10.56-77.1-23.57c0-1.25-.61-12.95,0-14.15,5.76-11.28,38.62-9.43,77.1-9.43s69.91-1.31,77.1,9.43c1.03,1.54,0,12.52,0,14.15Z"/><ellipse class="cls-50_savings-76 targetColor" cx="328.15" cy="220.03" rx="77.1" ry="23.57" style="fill: rgb(104, 225, 253);"/><path class="cls-26_savings-76" d="M389.6,216.16c-.01,1-.28,1.98-.77,2.85-4.63,8.6-30.04,15.16-60.66,15.16s-56-6.56-60.66-15.16c-.49-.87-.76-1.85-.77-2.85,0-9.96,27.5-18.02,61.42-18.02s61.45,8.03,61.45,18.02Z"/><path class="cls-50_savings-76 targetColor" d="M388.82,219.01c-4.63,8.6-30.04,15.16-60.66,15.16s-56-6.56-60.66-15.16c4.63-8.6,30.04-15.18,60.66-15.18s56.03,6.58,60.66,15.18Z" style="fill: rgb(104, 225, 253);"/><path class="cls-22_savings-76" d="M388.82,219.01c-4.63,8.6-30.04,15.16-60.66,15.16s-56-6.56-60.66-15.16c4.63-8.6,30.04-15.18,60.66-15.18s56.03,6.58,60.66,15.18Z"/><path class="cls-29_savings-76" d="M358.57,200.55c2.42,1.2,4.39,3.73,4.1,6.43-.16,1.54-1.06,3.02-.99,4.59.06,1.69,1.22,3.13,1.78,4.72,1.31,3.69-.77,7.96-4.07,10.1-1.69,1.02-3.51,1.82-5.41,2.36-10.24,3.29-20.82,5.4-31.54,6.26-5.68.46-11.45.57-16.95,2.08-3.5.96-6.84,2.46-10.34,3.43-.85.3-1.76.39-2.65.25-1.76-.41-2.8-2.43-2.6-4.24.32-1.8,1.24-3.44,2.63-4.63,2.83-2.76,6.5-4.43,9.82-6.6,4.25-2.77,7.91-6.33,11.79-9.61,3.38-2.86,6.95-5.51,10.5-8.16,4.35-3.24,8.74-6.51,13.62-8.88,4.87-2.37,13.73-.77,12.88-.77.22,2.04,5.72,1.82,7.44,2.69Z"/></g><g id="coin_savings-76"><path class="cls-49_savings-76" d="M183.43,132.03c-2.13,1.03-4.41,2.46-4.91,4.79,1.86.01,3.72-.18,5.54-.56l-4.84,5c-.3.23-.49.57-.55.94,0,.81,1.1,1.05,1.91.98,2.7-.21,5.37-.67,7.98-1.37.19,1.27-1.77,1.78-2.2,3-.39,1.07.65,2.2,1.75,2.42,1.13.09,2.26-.06,3.33-.45,3.62-.87,7.41-.36,11.14-.26,3.72.1,7.72-.33,10.6-2.71.67-.51,1.19-1.19,1.5-1.97.2-.81.24-1.65.12-2.47-.15-2.32,1.41-7.18.64-9.11-.73-1.82-4.05-3.09-5.78-3.38-10.65-1.78-22.31,3.31-26.22,5.17Z"/><ellipse class="cls-50_savings-76 targetColor" cx="212.63" cy="147.59" rx="52.2" ry="39.25" transform="translate(11.41 310.39) rotate(-73.74)" style="fill: rgb(104, 225, 253);"/><ellipse class="cls-25_savings-76" cx="212.63" cy="147.59" rx="52.2" ry="39.25" transform="translate(11.41 310.39) rotate(-73.74)"/><ellipse class="cls-50_savings-76 targetColor" cx="205.49" cy="144.62" rx="52.2" ry="39.33" transform="translate(8.55 300.68) rotate(-73.53)" style="fill: rgb(104, 225, 253);"/><ellipse class="cls-28_savings-76" cx="205.49" cy="144.62" rx="52.2" ry="39.33" transform="translate(8.55 300.68) rotate(-73.53)"/><ellipse class="cls-24_savings-76" cx="205.49" cy="144.62" rx="52.2" ry="39.33" transform="translate(8.55 300.68) rotate(-73.53)"/><path class="cls-31_savings-76" d="M231.2,152.45c-7.04,23.4-25.58,38.45-41.4,33.61-.56-.17-1.1-.36-1.64-.57h0c-14.67-5.88-21.02-27.97-14.24-50.53,7.04-23.39,25.58-38.44,41.4-33.61,2.35.72,4.55,1.85,6.51,3.33h0c11.12,8.39,15.35,27.9,9.37,47.77Z"/><path class="cls-50_savings-76 targetColor" d="M231.2,152.45c-7.04,23.4-25.58,38.45-41.4,33.61-.56-.17-1.1-.36-1.64-.57h0c-11.11-8.39-15.35-27.9-9.37-47.77,7.05-23.39,25.58-38.45,41.4-33.61.56.17,1.1.36,1.64.57h0c11.12,8.39,15.35,27.9,9.37,47.77Z" style="fill: rgb(104, 225, 253);"/><path class="cls-15_savings-76" d="M231.2,152.45c-7.04,23.4-25.58,38.45-41.4,33.61-.56-.17-1.1-.36-1.64-.57h0c-11.11-8.39-15.35-27.9-9.37-47.77,7.05-23.39,25.58-38.45,41.4-33.61.56.17,1.1.36,1.64.57h0c11.12,8.39,15.35,27.9,9.37,47.77Z"/><path class="cls-49_savings-76" d="M174.42,118.13c.45,2.5.77,5.03.97,7.56.24,3.72-3.68,1.27-3.68,1.27,0,0,2.32,2.97,1.85,4.63s-2.77,0-2.77,0c0,0,1.14,2.46.87,4.01-.27,1.55-3.33.29-3.33.29,0,0,1.68,1.98,1.34,3.75-.33,1.78-2.68,1.37-2.68,1.37,0,0-4.33-2.44-3.09-5.93,1.24-3.49-.64-8.93,1.41-9.96,2.05-1.03,3.35-5.41,5.53-5.86,1.23-.25,2.43-.63,3.58-1.13Z"/></g><g id="character_savings-76"><path class="cls-48_savings-76" d="M287.35,175.95s-65.54-5.51-67.4,29.49l-4.99,8.18,36.08,20.56s-3-8.6,5.21-12.79c8.22-4.19,41.38-6.23,46.52-15.95,5.14-9.72-15.43-29.49-15.43-29.49Z"/><path class="cls-48_savings-76" d="M298.67,184.59s-41.92,16.51-45.49,34.42c-3.57,17.9-2.13,15.18-2.13,15.18l15.45,10.91,22.64-3.82s4.63-10.21,19.42-12.94c14.78-2.73,35.74-7.21,40.28-18.89,4.53-11.69,3.78-24.85,3.78-24.85h-53.94Z"/><path class="cls-50_savings-76 targetColor" d="M285.28,145.51l-1.28,27.95s1.31,15.27,14.15,16.82c12.84,1.55,54.49-5.7,54.49-5.7,0,0,2.83-49.15,0-60.41-2.83-11.26-2.78-26.69-15.37-26.95-6.31-.13-22.82-3.51-31.5-2.32-9.34,1.28-16.59,8.78-17.56,18.16-.86,8.08-1.91,19.07-2.92,32.45Z" style="fill: rgb(104, 225, 253);"/><path class="cls-32_savings-76" d="M285.28,145.51l-1.28,27.95s1.31,15.27,14.15,16.82c12.84,1.55,54.49-5.7,54.49-5.7,0,0,2.83-49.15,0-60.41-2.83-11.26-2.78-26.69-15.37-26.95-6.31-.13-22.82-3.51-31.5-2.32-9.34,1.28-16.59,8.78-17.56,18.16-.86,8.08-1.91,19.07-2.92,32.45Z"/><path class="cls-50_savings-76 targetColor" d="M330.43,106.92c3.44-7.05,13.21-8.06,17.76-1.68,2.85,4.01,4.91,9.99,4.46,18.93-.82,16.1-12.65,31.67-21.11,40.86-4.86,5.3-11.88,8.09-19.05,7.59l-50.57-5.84,2.32-20.08,46.24,1.16,19.96-40.94Z" style="fill: rgb(104, 225, 253);"/><path class="cls-50_savings-76 targetColor" d="M330.43,106.92c3.44-7.05,13.21-8.06,17.76-1.68,2.85,4.01,4.91,9.99,4.46,18.93-.82,16.1-12.65,31.67-21.11,40.86-4.86,5.3-11.88,8.09-19.05,7.59l-50.57-5.84,2.32-20.08,46.24,1.16,19.96-40.94Z" style="fill: rgb(104, 225, 253);"/><path class="cls-50_savings-76 targetColor" d="M330.43,106.92c3.44-7.05,13.21-8.06,17.76-1.68,2.85,4.01,4.91,9.99,4.46,18.93-.82,16.1-12.65,31.67-21.11,40.86-4.86,5.3-11.88,8.09-19.05,7.59l-50.57-5.84,2.32-20.08,46.24,1.16,19.96-40.94Z" style="fill: rgb(104, 225, 253);"/><path class="cls-30_savings-76" d="M330.43,106.92c3.44-7.05,13.21-8.06,17.76-1.68,2.85,4.01,4.91,9.99,4.46,18.93-.82,16.1-12.65,31.67-21.11,40.86-4.86,5.3-11.88,8.09-19.05,7.59l-50.57-5.84,2.32-20.08,46.24,1.16,19.96-40.94Z"/><path class="cls-49_savings-76" d="M234,152.88c-2.13,1.03-4.4,2.46-4.91,4.79,1.86.01,3.72-.18,5.54-.56l-4.82,4.96c-.29.24-.48.58-.54.95,0,.77,1.1,1.04,1.9.98,2.7-.21,5.37-.67,7.98-1.37.19,1.27-1.77,1.78-2.2,3-.39,1.07.65,2.2,1.75,2.42,1.13.08,2.26-.07,3.33-.45,3.62-.88,7.41-.36,11.14-.27,3.72.09,7.72-.32,10.61-2.71.67-.5,1.19-1.19,1.49-1.97.2-.81.24-1.65.12-2.47-.15-2.32,1.41-7.18.64-9.11-.72-1.82-4.05-3.09-5.78-3.38-10.67-1.85-22.33,3.28-26.24,5.2Z"/><path class="cls-49_savings-76" d="M310,101.46c.95.53,2.07.69,3.14.45,6.5-.8,12.83-2.69,18.71-5.58-2.09-5.72-1.2-12.04-1.71-18.12-.18-2.04-.77-4.39-2.6-5.23-1.35-.61-2.93-.18-4.29.41-5.49,2.52-9.6,7.32-11.25,13.13-.77,2.55-.67,5.24-1.37,7.8-.59,1.98-3.08,5.38-.64,7.14Z"/><path class="cls-49_savings-76" d="M296.61,46.34s-4.97,26.97.41,35.13c5.38,8.16,13.13,10.3,20.85,4.56,4.97-3.85,9.41-8.34,13.19-13.36,0,0,4.89-.68,6.63-4.87,1.74-4.19-3.19-6.52-5.84-4.77-2.65,1.75,4.87-11.64,1.6-13.2-3.27-1.56-19.08-24.64-36.84-3.48Z"/><path class="cls-48_savings-76" d="M315.72,23.96c-2.64-.25-5.31.03-7.84.82-6.52,1.75-12.91,4.88-19.64,4.42-1.33-.09-2.86-.25-3.8.7-.8.99-.86,2.38-.15,3.43.7,1.01,1.62,1.85,2.7,2.46-1.54.73-1.67,3.14-.55,4.44,1.12,1.31,2.98,1.71,4.7,1.7-1.5.34-1.78,2.65-.7,3.75s2.84,1.17,4.33.77c1.7-.58,3.35-1.28,4.94-2.12,4.63-1.98,9.81-2.09,14.82-1.75,5.24.36,11.01,1.48,14.17,5.69,1.93,2.63,2.53,6,1.63,9.14-1,3.35-3.71,6.37-3.22,9.84,2.32-.56,2.9-4.22,5.26-4.74,1.86-.42,3.47-.56,5.07,1.69.49.68,1.81-1.89,2.32-2.56,1.78-2.41,3.58-4.89,4.41-7.77,1.14-4.21.08-8.71-2.82-11.96-.66-.6-1.22-1.32-1.65-2.11-.25-.91-.4-1.84-.44-2.79-.46-2.75-2.75-4.77-4.94-6.48-3.65-2.87-7.4-5.6-11.25-8.17-.84,2.09-.31,3.79-2.32,3.71-1.36-.05-3.41-1.88-5.05-2.1Z"/><path class="cls-48_savings-76" d="M329.75,81.22c-1.18-1.04-1.69-2.64-1.32-4.17.38-1.5,1.25-2.82,2.47-3.77,1.08-.86,2.27-1.57,3.55-2.09-.05,1.01-5.09,9.75-4.7,10.03Z"/><path class="cls-49_savings-76" d="M331.13,67.1c.05-.58.25-1.14.59-1.61.21-.2.45-.35.72-.45.43-.22.91-.33,1.4-.32.5.02.96.32,1.17.77.09.25.12.51.09.77-.18,2.18-1.69,4.03-3.79,4.63-.19.06-.4.06-.59,0-.23-.11-.4-.3-.49-.54-.31-.57-.33-1.25-.05-1.83.36-.53.79-.73.94-1.42Z"/></g><g id="piggy_bank_savings-76"><ellipse class="cls-14_savings-76" cx="173.7" cy="455.29" rx="141.94" ry="28.16"/><path class="cls-50_savings-76 targetColor" d="M279.7,452.95l-12.23,3.58c-10.75,3.13-22-3.05-25.13-13.8,0,0,0,0,0,0h0c-.2-.68-.36-1.37-.49-2.06l-9.43-51.01,47.34-18.07,12.64,60.03c1.99,9.34-3.54,18.63-12.69,21.35Z" style="fill: rgb(104, 225, 253);"/><path class="cls-5_savings-76" d="M279.7,452.95l-11.96-74.75,12.41-4.77,12.24,58.17c1.99,9.34-3.54,18.64-12.69,21.36Z"/><path class="cls-50_savings-76 targetColor" d="M137.35,445.06l-12.67.97c-11.21.82-20.97-7.61-21.79-18.82h0c-.05-.68-.06-1.35-.05-2.03l1.2-51.87,49.99-7.87.11,61.36c.05,9.54-7.27,17.51-16.78,18.27Z" style="fill: rgb(104, 225, 253);"/><path class="cls-7_savings-76" d="M141.08,405.71l-.77,38.8s13.65-3.34,13.86-17.71c.19-12.98.57-32.1.57-32.1l-13.66,11.01Z"/><path class="cls-50_savings-76 targetColor" d="M315.24,298.63c-8.83,56.64-69.14,100.47-142.21,100.47s-133.42-43.82-142.25-100.47c8.83-56.63,69.13-100.45,142.25-100.45s133.38,43.82,142.21,100.45Z" style="fill: rgb(104, 225, 253);"/><path class="cls-50_savings-76 targetColor" d="M315.27,298.63c-6.9,44.26-45.2,80.68-96.5,94.5,51.26-13.83,89.59-50.25,96.47-94.5-8.83-56.63-69.09-100.45-142.21-100.45S39.61,242,30.79,298.63c-.74,4.76-1.11,9.56-1.1,14.37,0,63.41,64.22,114.83,143.36,114.83s143.32-51.42,143.32-114.83c0-4.81-.36-9.62-1.09-14.37ZM40.93,328.98c-.84-1.58-1.63-3.19-2.38-4.81.75,1.62,1.54,3.23,2.38,4.81,14.86,28.14,43.33,50.56,78.78,61.95-35.47-11.42-63.93-33.84-78.78-61.95ZM124.26,392.31c1.54.44,3.07.86,4.59,1.27-1.54-.44-3.07-.86-4.59-1.27ZM209.4,395.4c1.54-.33,3.14-.68,4.7-1.06-1.55.36-3.12.71-4.7,1.06Z" style="fill: rgb(104, 225, 253);"/><path class="cls-50_savings-76 targetColor" d="M317.85,236.35s6.61-24.79,32.67-22.59c26.06,2.2,23.09,38.97,0,58.7,0,.03-25.49-31.45-32.67-36.11Z" style="fill: rgb(104, 225, 253);"/><path class="cls-8_savings-76" d="M317.85,236.57s6.61-24.79,32.67-22.59c26.06,2.2,23.09,38.97,0,58.7,0,.03-25.49-31.45-32.67-36.11Z"/><path class="cls-50_savings-76 targetColor" d="M331.05,242.94s4.63-17.28,22.76-15.74c18.13,1.54,16.09,27.16,0,40.93,0-.02-17.76-21.95-22.76-25.19Z" style="fill: rgb(104, 225, 253);"/><path class="cls-6_savings-76" d="M331.05,242.94s4.63-17.28,22.76-15.74c18.13,1.54,16.09,27.16,0,40.93,0-.02-17.76-21.95-22.76-25.19Z"/><path class="cls-4_savings-76" d="M317.28,313.3c0,63.41-64.17,114.83-143.32,114.83S30.61,376.71,30.61,313.3c0-4.81.37-9.61,1.1-14.37,8.83,56.6,69.12,100.46,142.25,100.46,17.56.05,35.03-2.56,51.82-7.72,6.6-4.63-1.98-28.39-2.17-28.92l12.47,6.48,11.94,13.69c36.69-17.76,62.62-48.33,68.18-83.97.73,4.75,1.1,9.55,1.09,14.35Z"/><path class="cls-50_savings-76 targetColor" d="M402.02,326.54c.01,12.96-2.81,25.77-8.26,37.53-14.67,31.67-47.28,53.64-85.18,53.64-25.58.08-50.1-10.23-67.92-28.58-16.36-16.74-25.52-39.21-25.53-62.61,0-50.36,41.85-91.14,93.45-91.14s93.45,40.8,93.45,91.16Z" style="fill: rgb(104, 225, 253);"/><path class="cls-11_savings-76" d="M402.02,326.54c.01,12.96-2.81,25.77-8.26,37.53-14.67,31.67-47.28,53.64-85.18,53.64-25.58.08-50.1-10.23-67.92-28.58-16.36-16.74-25.52-39.21-25.53-62.61,0-50.36,41.85-91.14,93.45-91.14s93.45,40.8,93.45,91.16Z"/><ellipse class="cls-50_savings-76 targetColor" cx="328.24" cy="308.69" rx="6.79" ry="6.84" style="fill: rgb(104, 225, 253);"/><ellipse class="cls-50_savings-76 targetColor" cx="372" cy="303" rx="6.79" ry="6.84" style="fill: rgb(104, 225, 253);"/><ellipse class="cls-13_savings-76" cx="328.24" cy="308.69" rx="6.79" ry="6.84"/><ellipse class="cls-9_savings-76" cx="372" cy="303" rx="6.79" ry="6.84"/><path class="cls-50_savings-76 targetColor" d="M381.42,319.96l7.24,39.21c-2.59,1.27-5.34,2.18-8.17,2.7-14.18,2.63-27.4-4.47-29.51-15.9-2.12-11.43,7.66-22.88,21.84-25.54,2.83-.55,5.72-.71,8.6-.47Z" style="fill: rgb(104, 225, 253);"/><path class="cls-12_savings-76" d="M381.42,319.96l7.24,39.21c-2.59,1.27-5.34,2.18-8.17,2.7-14.18,2.63-27.4-4.47-29.51-15.9-2.12-11.43,7.66-22.88,21.84-25.54,2.83-.55,5.72-.71,8.6-.47Z"/><ellipse class="cls-50_savings-76 targetColor" cx="384.52" cy="339.69" rx="10.57" ry="20" transform="translate(-55.05 75.07) rotate(-10.41)" style="fill: rgb(104, 225, 253);"/><ellipse class="cls-3_savings-76" cx="384.52" cy="339.69" rx="10.57" ry="20" transform="translate(-55.05 75.07) rotate(-10.41)"/><path class="cls-10_savings-76" d="M383.77,338.52c1.09,3.82,1.37,7.08.62,7.3s-2.25-2.7-3.34-6.51-1.37-7.07-.62-7.29,2.25,2.7,3.34,6.5Z"/><path class="cls-38_savings-76" d="M391.26,336.18c1.12,3.86,1.41,7.23.66,7.45s-2.26-2.77-3.38-6.67c-1.11-3.9-1.41-7.24-.66-7.45s2.26,2.77,3.38,6.67Z"/><path class="cls-39_savings-76" d="M393.88,362.43l-.12,1.64c-14.67,31.67-47.28,53.64-85.18,53.64-25.58.08-50.1-10.23-67.92-28.58,0,0,7.14-10.3,59.55-1.47,52.4,8.84,93.68-25.23,93.68-25.23Z"/><path class="cls-50_savings-76 targetColor" d="M268.18,257.54s-6.6-24.79-32.67-22.58c-26.07,2.21-23.09,38.97,0,58.7,0,.03,25.49-31.45,32.67-36.12Z" style="fill: rgb(104, 225, 253);"/><path class="cls-36_savings-76" d="M269.05,257.54s-6.6-24.79-32.67-22.58c-26.07,2.21-23.09,38.97,0,58.7,0,.03,25.49-31.45,32.67-36.12Z"/><path class="cls-50_savings-76 targetColor" d="M265.14,260.83s-4.63-17.27-22.76-15.73c-18.13,1.54-16.09,27.15,0,40.93,0-.02,17.76-21.93,22.76-25.2Z" style="fill: rgb(104, 225, 253);"/><path class="cls-37_savings-76" d="M265.14,260.83s-4.63-17.27-22.76-15.73c-18.13,1.54-16.09,27.15,0,40.93,0-.02,17.76-21.93,22.76-25.2Z"/><path class="cls-48_savings-76" d="M224.79,229.4l-6.65,2.98-6.65,2.98c-38.89-23.17-73.71-22.77-92-20.17h0c-4.55.59-9.04,1.56-13.42,2.91l19.39-7.72s11.21-4.63,41.27-2.93c38.12,2.19,58.06,21.94,58.06,21.94Z"/><path class="cls-50_savings-76 targetColor" d="M224.79,229.4l-6.65,2.98-16.22-11.18c-25.9-15.73-73.12-9.15-73.12-9.15l-9.35,3.14h0c-4.55.59-9.04,1.56-13.42,2.91l19.39-7.72s11.21-4.63,41.27-2.93c38.15,2.19,58.1,21.94,58.1,21.94Z" style="fill: rgb(104, 225, 253);"/><path class="cls-35_savings-76" d="M224.79,229.4l-6.65,2.98-16.22-11.18c-25.9-15.73-73.12-9.15-73.12-9.15l-9.35,3.14h0c-4.55.59-9.04,1.56-13.42,2.91l19.39-7.72s11.21-4.63,41.27-2.93c38.15,2.19,58.1,21.94,58.1,21.94Z"/><path class="cls-50_savings-76 targetColor" d="M208,470.06l-12.68,1.27c-11.18,1.07-21.12-7.13-22.19-18.31h0c-.06-.66-.09-1.33-.09-1.99v-51.93l49.82-9.04,1.54,61.34c.27,9.55-6.89,17.69-16.4,18.65Z" style="fill: rgb(104, 225, 253);"/><path class="cls-50_savings-76 targetColor" d="M81.6,456.57l-12.67,1.27c-11.19,1.08-21.13-7.11-22.21-18.3,0,0,0,0,0,0h0c-.06-.67-.09-1.35-.09-2.03v-100.93l49.82,40.01.12,4.83h0l1.4,56.47c.28,9.55-6.85,17.7-16.35,18.69Z" style="fill: rgb(104, 225, 253);"/><path class="cls-33_savings-76" d="M81.6,456.57s2.93-63.33,6.95-70.35c4.02-7.01,8.02-4.82,8.02-4.82h0l1.4,56.47c.28,9.56-6.86,17.71-16.37,18.69Z"/><path class="cls-34_savings-76" d="M208,470.06l1.81-75.69,13.07-2.41,1.48,59.47c.26,9.53-6.87,17.65-16.35,18.63Z"/></g></svg>